<svg width="48" height="32" viewBox="0 0 48 32" fill="none" xmlns="http://www.w3.org/2000/svg">
<g clip-path="url(#clip0_2166_1719)">
<path d="M31.749 16.2247L47.5939 25.5706V6.48413L31.749 16.2247Z" fill="#404040"/>
<path d="M0.594238 6.48413V25.5706L16.4391 16.2247L0.594238 6.48413Z" fill="#404040"/>
<path d="M44.656 0.925903H3.53101C2.0652 0.925903 0.901953 1.94546 0.681641 3.25827L24.0935 17.6499L47.5054 3.25827C47.2851 1.94546 46.1218 0.925903 44.656 0.925903Z" fill="#404040"/>
<path d="M29.0591 17.8801L24.9025 20.4345C24.6558 20.5852 24.3767 20.6592 24.0947 20.6592C23.8127 20.6592 23.5337 20.5852 23.2869 20.4345L19.1303 17.8774L0.688721 28.7609C0.914908 30.0627 2.07228 31.074 3.53222 31.074H44.6572C46.1172 31.074 47.2745 30.0627 47.5007 28.7609L29.0591 17.8801Z" fill="#404040"/>
</g>
<defs>
<clipPath id="clip0_2166_1719">
<rect width="47" height="32" fill="white" transform="translate(0.594238)"/>
</clipPath>
</defs>
</svg>
