<svg width="25" height="24" viewBox="0 0 25 24" fill="none" xmlns="http://www.w3.org/2000/svg">
<path d="M13.7781 2.00099C14.5078 1.99819 15.2376 2.00552 15.9671 2.02299L16.1611 2.02999C16.3851 2.03799 16.6061 2.04799 16.8731 2.05999C17.9371 2.10999 18.6631 2.27799 19.3001 2.52499C19.9601 2.77899 20.5161 3.12299 21.0721 3.67899C21.5805 4.17859 21.9739 4.78293 22.2251 5.44999C22.4721 6.08699 22.6401 6.81399 22.6901 7.87799C22.7021 8.14399 22.7121 8.36599 22.7201 8.58999L22.7261 8.78399C22.7439 9.51318 22.7515 10.2426 22.7491 10.972L22.7501 11.718V13.028C22.7526 13.7577 22.7449 14.4875 22.7271 15.217L22.7211 15.411C22.7131 15.635 22.7031 15.856 22.6911 16.123C22.6411 17.187 22.4711 17.913 22.2251 18.55C21.9747 19.2177 21.5812 19.8226 21.0721 20.322C20.5721 20.8303 19.9674 21.2237 19.3001 21.475C18.6631 21.722 17.9371 21.89 16.8731 21.94C16.6061 21.952 16.3851 21.962 16.1611 21.97L15.9671 21.976C15.2376 21.9938 14.5078 22.0014 13.7781 21.999L13.0321 22H11.7231C10.9934 22.0025 10.2636 21.9948 9.53409 21.977L9.34009 21.971C9.1027 21.9624 8.86536 21.9524 8.62809 21.941C7.56409 21.891 6.83809 21.721 6.20009 21.475C5.53277 21.2243 4.92833 20.8308 4.42909 20.322C3.92013 19.8223 3.52631 19.2175 3.27509 18.55C3.02809 17.913 2.86009 17.187 2.81009 16.123C2.79895 15.8857 2.78895 15.6484 2.78009 15.411L2.77509 15.217C2.75665 14.4875 2.74832 13.7577 2.75009 13.028V10.972C2.7473 10.2426 2.75463 9.51318 2.77209 8.78399L2.77909 8.58999C2.78709 8.36599 2.79709 8.14399 2.80909 7.87799C2.85909 6.81299 3.02709 6.08799 3.27409 5.44999C3.52546 4.78261 3.92005 4.17843 4.43009 3.67999C4.92898 3.17074 5.53305 2.77656 6.20009 2.52499C6.83809 2.27799 7.56309 2.10999 8.62809 2.05999L9.34009 2.02999L9.53409 2.02499C10.2633 2.00656 10.9927 1.99823 11.7221 1.99999L13.7781 2.00099ZM12.7501 7.00099C12.0876 6.99162 11.4298 7.11401 10.8151 7.36105C10.2003 7.6081 9.64074 7.97486 9.16893 8.44004C8.69713 8.90522 8.32249 9.45952 8.06678 10.0707C7.81106 10.682 7.67938 11.3379 7.67938 12.0005C7.67938 12.663 7.81106 13.319 8.06678 13.9302C8.32249 14.5414 8.69713 15.0958 9.16893 15.5609C9.64074 16.0261 10.2003 16.3929 10.8151 16.6399C11.4298 16.887 12.0876 17.0094 12.7501 17C14.0762 17 15.3479 16.4732 16.2856 15.5355C17.2233 14.5978 17.7501 13.3261 17.7501 12C17.7501 10.6739 17.2233 9.40213 16.2856 8.46445C15.3479 7.52677 14.0762 7.00099 12.7501 7.00099ZM12.7501 9.00099C13.1486 8.99364 13.5446 9.06578 13.9149 9.21319C14.2852 9.3606 14.6224 9.58033 14.9069 9.85953C15.1913 10.1387 15.4173 10.4718 15.5715 10.8393C15.7258 11.2068 15.8053 11.6014 15.8054 12C15.8054 12.3986 15.7261 12.7931 15.5719 13.1607C15.4178 13.5283 15.1919 13.8614 14.9076 14.1407C14.6232 14.42 14.2861 14.6399 13.9158 14.7874C13.5455 14.9349 13.1496 15.0072 12.7511 15C11.9554 15 11.1924 14.6839 10.6298 14.1213C10.0672 13.5587 9.75109 12.7956 9.75109 12C9.75109 11.2043 10.0672 10.4413 10.6298 9.87867C11.1924 9.31606 11.9554 8.99999 12.7511 8.99999L12.7501 9.00099ZM18.0001 5.50099C17.6775 5.5139 17.3724 5.65114 17.1487 5.88396C16.925 6.11678 16.8001 6.42712 16.8001 6.74999C16.8001 7.07285 16.925 7.38319 17.1487 7.61601C17.3724 7.84884 17.6775 7.98607 18.0001 7.99899C18.3316 7.99899 18.6496 7.86729 18.884 7.63287C19.1184 7.39845 19.2501 7.08051 19.2501 6.74899C19.2501 6.41747 19.1184 6.09952 18.884 5.8651C18.6496 5.63068 18.3316 5.49899 18.0001 5.49899V5.50099Z" fill="#F1F1F1"/>
</svg>
