<svg width="25" height="24" viewBox="0 0 25 24" fill="none" xmlns="http://www.w3.org/2000/svg">
<path d="M7.68994 5.00002C7.68968 5.53046 7.47871 6.03906 7.10345 6.41394C6.72819 6.78883 6.21937 6.99929 5.68894 6.99902C5.15851 6.99876 4.64991 6.78779 4.27502 6.41253C3.90014 6.03727 3.68968 5.52846 3.68994 4.99802C3.69021 4.46759 3.90117 3.95899 4.27644 3.5841C4.6517 3.20922 5.16051 2.99876 5.69094 2.99902C6.22137 2.99929 6.72998 3.21026 7.10486 3.58552C7.47975 3.96078 7.69021 4.46959 7.68994 5.00002ZM7.74994 8.48002H3.74994V21H7.74994V8.48002ZM14.0699 8.48002H10.0899V21H14.0299V14.43C14.0299 10.77 18.7999 10.43 18.7999 14.43V21H22.7499V13.07C22.7499 6.90002 15.6899 7.13002 14.0299 10.16L14.0699 8.48002Z" fill="#F1F1F1"/>
</svg>
