<svg width="37" height="32" viewBox="0 0 37 32" fill="none" xmlns="http://www.w3.org/2000/svg">
<g clip-path="url(#clip0_2166_1756)">
<path d="M28.7527 5.47978C26.5679 2.12828 22.6872 0.0807202 18.3718 0.00247021C18.1875 -0.000904785 18.0021 -0.000904785 17.8178 0.00247021C13.5025 0.0807202 9.6218 2.12828 7.43691 5.47978C5.20364 8.90553 5.14254 13.0205 7.27343 16.4875L16.2005 31.0117C16.2045 31.0181 16.2085 31.0245 16.2127 31.0309C16.6054 31.6377 17.3091 32 18.0949 32C18.8808 32 19.5844 31.6376 19.9771 31.0309C19.9812 31.0245 19.9852 31.0181 19.9892 31.0117L28.9163 16.4875C31.0471 13.0205 30.986 8.90553 28.7527 5.47978ZM18.0948 14.5C15.3033 14.5 13.0323 12.4813 13.0323 9.99997C13.0323 7.51866 15.3033 5.49997 18.0948 5.49997C20.8863 5.49997 23.1573 7.51866 23.1573 9.99997C23.1573 12.4813 20.8864 14.5 18.0948 14.5Z" fill="#4F4F4F"/>
</g>
<defs>
<clipPath id="clip0_2166_1756">
<rect width="36" height="32" fill="white" transform="translate(0.0942383)"/>
</clipPath>
</defs>
</svg>
